<?xml version="1.0" encoding="utf-8"?>
<!-- Generator: Adobe Illustrator 16.0.0, SVG Export Plug-In . SVG Version: 6.00 Build 0)  -->
<!DOCTYPE svg PUBLIC "-//W3C//DTD SVG 1.1//EN" "http://www.w3.org/Graphics/SVG/1.1/DTD/svg11.dtd">
<svg version="1.1" id="Layer_1" xmlns="http://www.w3.org/2000/svg" xmlns:xlink="http://www.w3.org/1999/xlink" x="0px" y="0px"
	 width="90px" height="43px" viewBox="0 0 90 43" enable-background="new 0 0 90 43" xml:space="preserve">
<g>
	<path fill="#89909A" stroke="#89909A" stroke-width="0.5" stroke-miterlimit="10" d="M8.896,14.664
		c-0.073-0.049-0.062-0.089,0.026-0.089h4.747c0.088,0,0.22,0.041,0.292,0.09l3.416,2.327c0.072,0.049,0.193,0.052,0.268,0.005
		l3.729-2.337c0.075-0.046,0.208-0.084,0.296-0.084h9.76c0.088,0,0.232-0.002,0.32-0.004c0,0,1.973-0.05,1.28,2.03
		c-0.693,2.08-2.4,5.919-0.64,5.919c1.76,0,4.587,0,4.587,0c0.088,0,0.232-0.004,0.32-0.008c0,0,0.427-0.021,0.8-0.967
		s1.553-4.738,1.553-4.738c0.025-0.084,0.063-0.223,0.083-0.309c0,0,0.323-1.391-0.876-1.771c-1.2-0.38,4.7-0.159,4.7-0.159
		c0.088,0.003,0.229,0.028,0.313,0.056c0,0,1.337,0.434,0.818,2.094c-0.52,1.66-1.368,4.317-1.368,4.317
		c-0.026,0.083-0.081,0.216-0.121,0.296c0,0-0.034,0.066-0.194,0.215c-0.129,0.121-3.468,2.596-3.468,2.596
		c-0.07,0.054-0.19,0.133-0.266,0.179c0,0-0.347,0.207-0.453,0.228c-0.041,0.008-0.121,0.015-0.235,0.021
		c-1.458,0.088-8.271,0.111-8.271,0.111c-0.088,0-0.232,0.002-0.32,0.004c0,0-1.36,0.022-2.106-0.191
		c-0.747-0.212-1.894-0.532-1.76-1.385c0.133-0.854,1.872-6.381,1.872-6.381c0.026-0.084,0.052-0.156,0.057-0.16c0,0,0,0,0-0.145
		c0-0.08,0.001-0.325,0.002-0.53c0.001-0.169,0.001-0.169,0.001-0.169c0-0.078,0.001-0.213,0.001-0.301c0,0,0-0.135-0.36,0.064
		c-0.019,0.011-0.092,0.054-0.215,0.126C25.259,16.92,7.052,27.985,7.052,27.985c-0.075,0.046-0.104,0.019-0.065-0.06
		c0,0,2.861-5.734,8.109-9.177s-0.169-0.254-0.169-0.254c-0.076,0.045-0.187,0.049-0.247,0.009c-0.06-0.04-0.113-0.075-0.118-0.079
		s-0.069-0.046-0.143-0.095L8.896,14.664z"/>
	<path fill="#89909A" stroke="#89909A" stroke-width="0.5" stroke-miterlimit="10" d="M8.896,14.664
		c-0.073-0.049-0.062-0.089,0.026-0.089h4.747c0.088,0,0.22,0.041,0.292,0.09l3.416,2.327c0.072,0.049,0.193,0.052,0.268,0.005
		l3.729-2.337c0.075-0.046,0.208-0.084,0.296-0.084h9.76c0.088,0,0.232-0.002,0.32-0.004c0,0,1.973-0.05,1.28,2.03
		c-0.693,2.08-2.4,5.919-0.64,5.919c1.76,0,4.587,0,4.587,0c0.088,0,0.232-0.004,0.32-0.008c0,0,0.427-0.021,0.8-0.967
		s1.553-4.738,1.553-4.738c0.025-0.084,0.063-0.223,0.083-0.309c0,0,0.323-1.391-0.876-1.771c-1.2-0.38,4.7-0.159,4.7-0.159
		c0.088,0.003,0.229,0.028,0.313,0.056c0,0,1.337,0.434,0.818,2.094c-0.52,1.66-1.368,4.317-1.368,4.317
		c-0.026,0.083-0.081,0.216-0.121,0.296c0,0-0.034,0.066-0.194,0.215c-0.129,0.121-3.468,2.596-3.468,2.596
		c-0.07,0.054-0.19,0.133-0.266,0.179c0,0-0.347,0.207-0.453,0.228c-0.041,0.008-0.121,0.015-0.235,0.021
		c-1.458,0.088-8.271,0.111-8.271,0.111c-0.088,0-0.232,0.002-0.32,0.004c0,0-1.36,0.022-2.106-0.191
		c-0.747-0.212-1.894-0.532-1.76-1.385c0.133-0.854,1.872-6.381,1.872-6.381c0.026-0.084,0.052-0.156,0.057-0.16c0,0,0,0,0-0.145
		c0-0.08,0.001-0.325,0.002-0.53c0.001-0.169,0.001-0.169,0.001-0.169c0-0.078,0.001-0.213,0.001-0.301c0,0,0-0.135-0.36,0.064
		c-0.019,0.011-0.092,0.054-0.215,0.126C25.259,16.92,7.052,27.985,7.052,27.985c-0.075,0.046-0.104,0.019-0.065-0.06
		c0,0,2.861-5.734,8.109-9.177s-0.169-0.254-0.169-0.254c-0.076,0.045-0.187,0.049-0.247,0.009c-0.06-0.04-0.113-0.075-0.118-0.079
		s-0.069-0.046-0.143-0.095L8.896,14.664z"/>
</g>
<g>
	<path fill="#89909A" stroke="#89909A" stroke-width="0.5" stroke-miterlimit="10" d="M45.417,14.508h6.22
		c0.088,0,0.104,0.045,0.035,0.1l-6.59,5.261c-0.069,0.055-0.103,0.031-0.076-0.053l1.041-3.196c0.027-0.083,0.061-0.224,0.074-0.31
		c0,0,0.135-0.871-0.365-1.337S45.329,14.508,45.417,14.508z"/>
	<path fill="#89909A" stroke="#89909A" stroke-width="0.5" stroke-miterlimit="10" d="M45.417,14.508h6.22
		c0.088,0,0.104,0.045,0.035,0.1l-6.59,5.261c-0.069,0.055-0.103,0.031-0.076-0.053l1.041-3.196c0.027-0.083,0.061-0.224,0.074-0.31
		c0,0,0.135-0.871-0.365-1.337S45.329,14.508,45.417,14.508z"/>
</g>
<path fill="#89909A" stroke="#89909A" stroke-width="0.5" stroke-miterlimit="10" d="M14.366,18.229l-0.058,0.027
	c0,0,0.702,0.517,0.135,0.943c-0.567,0.427,0.863,0.184,0.863,0.184v-0.494l-0.223-0.132l-0.232-0.013l-0.044-0.215"/>
<path fill="#89909A" stroke="#89909A" stroke-width="0.5" stroke-miterlimit="10" d="M27.036,15.664"/>
<path fill="#89909A" stroke="#89909A" stroke-width="0.5" stroke-miterlimit="10" d="M26.896,15.875
	c0.754-0.44,1.414-0.894,1.154,0.854"/>
<path fill="#89909A" stroke="#89909A" stroke-width="0.5" stroke-miterlimit="10" d="M25.685,17.341"/>
<path fill="#89909A" stroke="#89909A" stroke-width="0.5" stroke-miterlimit="10" d="M28.063,16.162c0,0-0.125,0.938-0.23,1.114"/>
<g>
	<path fill="#89909A" stroke="#89909A" stroke-width="0.5" stroke-miterlimit="10" d="M68.389,2.254
		c0.106,1.09-34.778,27.959-34.778,27.959c-0.07,0.054-0.198,0.108-0.285,0.12l-0.057,0.008c-0.087,0.013-0.207,0.075-0.267,0.141
		c0,0-0.211,0.229-0.345-0.012c-0.133-0.24-0.762-0.8-0.762-0.8c-0.065-0.059-0.179-0.066-0.252-0.017l-0.535,0.355
		c-0.073,0.049-0.096,0.15-0.051,0.227l0.637,1.059c0.045,0.074,0.024,0.178-0.047,0.23L22.69,38.03
		c-0.071,0.052-0.129,0.095-0.128,0.097s-0.057,0.045-0.128,0.096l-0.928,0.671c-0.072,0.051-0.166,0.156-0.209,0.231l-0.091,0.609
		c0.019,0.086,0.076,0.215,0.128,0.287l0.132,0.182c0.052,0.072,0.156,0.167,0.232,0.211l0.608,0.104
		c0.086-0.017,0.215-0.073,0.287-0.124l2.332-1.684c0.072-0.052,0.188-0.137,0.26-0.188l7.448-5.373
		c0.071-0.051,0.179-0.041,0.238,0.024l1.012,1.098c0.06,0.065,0.108,0.118,0.589-0.202c0.481-0.32-0.346-1.729-0.346-1.729
		c-0.045-0.076-0.019-0.174,0.058-0.218l0.096-0.055c0.076-0.044,0.139-0.14,0.139-0.212c0-0.074,0.057-0.179,0.125-0.233
		c0,0,29.626-23.526,32.029-25.713S68.282,1.165,68.389,2.254z"/>
	<path fill="#89909A" stroke="#89909A" stroke-width="0.5" stroke-miterlimit="10" d="M68.389,2.254
		c0.106,1.09-34.778,27.959-34.778,27.959c-0.07,0.054-0.198,0.108-0.285,0.12l-0.057,0.008c-0.087,0.013-0.207,0.075-0.267,0.141
		c0,0-0.211,0.229-0.345-0.012c-0.133-0.24-0.762-0.8-0.762-0.8c-0.065-0.059-0.179-0.066-0.252-0.017l-0.535,0.355
		c-0.073,0.049-0.096,0.15-0.051,0.227l0.637,1.059c0.045,0.074,0.024,0.178-0.047,0.23L22.69,38.03
		c-0.071,0.052-0.129,0.095-0.128,0.097s-0.057,0.045-0.128,0.096l-0.928,0.671c-0.072,0.051-0.166,0.156-0.209,0.231l-0.091,0.609
		c0.019,0.086,0.076,0.215,0.128,0.287l0.132,0.182c0.052,0.072,0.156,0.167,0.232,0.211l0.608,0.104
		c0.086-0.017,0.215-0.073,0.287-0.124l2.332-1.684c0.072-0.052,0.188-0.137,0.26-0.188l7.448-5.373
		c0.071-0.051,0.179-0.041,0.238,0.024l1.012,1.098c0.06,0.065,0.108,0.118,0.589-0.202c0.481-0.32-0.346-1.729-0.346-1.729
		c-0.045-0.076-0.019-0.174,0.058-0.218l0.096-0.055c0.076-0.044,0.139-0.14,0.139-0.212c0-0.074,0.057-0.179,0.125-0.233
		c0,0,29.626-23.526,32.029-25.713S68.282,1.165,68.389,2.254z"/>
</g>
<g>
	<path fill="#89909A" stroke="#89909A" stroke-width="0.5" stroke-miterlimit="10" d="M45.456,24.688
		c-0.088,0-0.104-0.046-0.036-0.102l3.913-3.196c0.067-0.057,0.102-0.033,0.075,0.051l-0.983,3.095
		c-0.026,0.083-0.12,0.152-0.208,0.152H45.456z"/>
	<path fill="#89909A" stroke="#89909A" stroke-width="0.5" stroke-miterlimit="10" d="M45.456,24.688
		c-0.088,0-0.104-0.046-0.036-0.102l3.913-3.196c0.067-0.057,0.102-0.033,0.075,0.051l-0.983,3.095
		c-0.026,0.083-0.12,0.152-0.208,0.152H45.456z"/>
</g>
<g>
	<path fill="#89909A" stroke="#89909A" stroke-width="0.5" stroke-miterlimit="10" d="M55.243,16.787
		c-0.089,0-0.105-0.046-0.039-0.104l2.372-2.07c0.066-0.058,0.192-0.105,0.28-0.105h3.413c0.088,0,0.232-0.001,0.32-0.003
		c0,0,3.066-0.063,1.974,3.59c-1.094,3.653-2.105,6.444-2.105,6.444c-0.03,0.082-0.127,0.149-0.215,0.149H56.55
		c-0.088,0-0.138-0.069-0.109-0.151l2.352-7.037c0.028-0.083,0.076-0.219,0.105-0.302c0,0,0.159-0.436-0.508-0.436
		S55.243,16.787,55.243,16.787z"/>
	<path fill="#89909A" stroke="#89909A" stroke-width="0.5" stroke-miterlimit="10" d="M55.243,16.787
		c-0.089,0-0.105-0.046-0.039-0.104l2.372-2.07c0.066-0.058,0.192-0.105,0.28-0.105h3.413c0.088,0,0.232-0.001,0.32-0.003
		c0,0,3.066-0.063,1.974,3.59c-1.094,3.653-2.105,6.444-2.105,6.444c-0.03,0.082-0.127,0.149-0.215,0.149H56.55
		c-0.088,0-0.138-0.069-0.109-0.151l2.352-7.037c0.028-0.083,0.076-0.219,0.105-0.302c0,0,0.159-0.436-0.508-0.436
		S55.243,16.787,55.243,16.787z"/>
</g>
<g>
	<path fill="#89909A" stroke="#89909A" stroke-width="0.5" stroke-miterlimit="10" d="M81.49,14.636
		c0.053-0.07,0.023-0.128-0.063-0.128H67.346c-0.087,0-0.231-0.002-0.319-0.005c0,0-1.08-0.034-1.399,1.046
		c-0.32,1.08-2.112,6.768-2.112,6.768c-0.026,0.083-0.076,0.219-0.11,0.299c0,0-0.857,2.014,3.782,2.073s8.8,0.003,8.8,0.003
		c0.088-0.002,0.232-0.006,0.32-0.008c0,0,4.96-0.175,5.44-1.695c0.479-1.52,0.72-2.445,0.72-2.445
		c0.021-0.084,0.065-0.222,0.096-0.305c0,0,0.584-1.57-4.057-1.609c-4.64-0.041-4.704-0.009-4.783,0.029c0,0-3.386,1.621-3.416,1.99
		s6.19,0.131,6.51,0.07c0.32-0.061,0.53,0.13,0.45,0.47c-0.08,0.341-0.06,1.081-0.54,1.081c-0.479,0-7.74,0.059-7.74,0.059
		c-0.088,0-0.138-0.068-0.11-0.151l1.481-4.596c0.027-0.083,0.077-0.219,0.109-0.3c0,0,0.147-0.359,0.787-0.359
		s5.146-0.051,5.146-0.051c0.088-0.001,0.231-0.006,0.32-0.011c0,0,2.086-0.111,3.266-0.952
		C81.167,15.069,81.49,14.636,81.49,14.636z"/>
	<path fill="#89909A" stroke="#89909A" stroke-width="0.5" stroke-miterlimit="10" d="M81.49,14.636
		c0.053-0.07,0.023-0.128-0.063-0.128H67.346c-0.087,0-0.231-0.002-0.319-0.005c0,0-1.08-0.034-1.399,1.046
		c-0.32,1.08-2.112,6.768-2.112,6.768c-0.026,0.083-0.076,0.219-0.11,0.299c0,0-0.857,2.014,3.782,2.073s8.8,0.003,8.8,0.003
		c0.088-0.002,0.232-0.006,0.32-0.008c0,0,4.96-0.175,5.44-1.695c0.479-1.52,0.72-2.445,0.72-2.445
		c0.021-0.084,0.065-0.222,0.096-0.305c0,0,0.584-1.57-4.057-1.609c-4.64-0.041-4.704-0.009-4.783,0.029c0,0-3.386,1.621-3.416,1.99
		s6.19,0.131,6.51,0.07c0.32-0.061,0.53,0.13,0.45,0.47c-0.08,0.341-0.06,1.081-0.54,1.081c-0.479,0-7.74,0.059-7.74,0.059
		c-0.088,0-0.138-0.068-0.11-0.151l1.481-4.596c0.027-0.083,0.077-0.219,0.109-0.3c0,0,0.147-0.359,0.787-0.359
		s5.146-0.051,5.146-0.051c0.088-0.001,0.231-0.006,0.32-0.011c0,0,2.086-0.111,3.266-0.952
		C81.167,15.069,81.49,14.636,81.49,14.636z"/>
</g>
<path fill="#89909A" stroke="#89909A" stroke-width="0.5" stroke-miterlimit="10" d="M17.269,18.709c0,0.247-0.144,0.457-0.32,0.457
	h-1.92c-0.176,0-0.32-0.21-0.32-0.457v-1.337c0-0.247,0.144-0.446,0.32-0.446h1.92c0.177,0,0.32,0.2,0.32,0.446V18.709z"/>
<g>
</g>
<g>
</g>
<g>
</g>
<g>
</g>
<g>
</g>
<g>
</g>
<g>
</g>
<g>
</g>
<g>
</g>
<g>
</g>
<g>
</g>
<g>
</g>
<g>
</g>
<g>
</g>
<g>
</g>
</svg>
