<?xml version="1.0" encoding="utf-8"?>
<!-- Generator: Adobe Illustrator 16.0.0, SVG Export Plug-In . SVG Version: 6.00 Build 0)  -->
<!DOCTYPE svg PUBLIC "-//W3C//DTD SVG 1.1//EN" "http://www.w3.org/Graphics/SVG/1.1/DTD/svg11.dtd">
<svg version="1.1" id="Layer_1" xmlns="http://www.w3.org/2000/svg" xmlns:xlink="http://www.w3.org/1999/xlink" x="0px" y="0px"
	 width="90px" height="43px" viewBox="0 0 90 43" enable-background="new 0 0 90 43" xml:space="preserve">
<g>
	<path fill="#89909A" stroke="#89909A" stroke-width="0.75" stroke-miterlimit="10" d="M2.705,27.276V13.672h1.748v11.932h5.89
		v1.672H2.705z"/>
	<path fill="#89909A" stroke="#89909A" stroke-width="0.75" stroke-miterlimit="10" d="M13.915,27.276h-1.748V13.672h4.636
		c1.152,0,2.15,0.383,2.993,1.149c0.842,0.767,1.263,1.732,1.263,2.897c0,1.166-0.421,2.131-1.263,2.897
		c-0.843,0.767-1.84,1.15-2.993,1.15h-2.888V27.276z M13.915,20.094h2.926c0.734,0,1.323-0.247,1.767-0.741
		c0.443-0.494,0.665-1.039,0.665-1.634c0-0.595-0.222-1.14-0.665-1.634c-0.444-0.494-1.033-0.741-1.767-0.741h-2.926V20.094z"/>
	<path fill="#89909A" stroke="#89909A" stroke-width="0.75" stroke-miterlimit="10" d="M26.721,27.58
		c-0.988,0-1.955-0.322-2.898-0.969s-1.561-1.551-1.852-2.717l1.596-0.646c0.189,0.748,0.58,1.378,1.168,1.891
		c0.59,0.514,1.252,0.77,1.986,0.77c0.76,0,1.408-0.199,1.947-0.598c0.537-0.4,0.807-0.941,0.807-1.625
		c0-0.76-0.27-1.346-0.807-1.758c-0.539-0.411-1.391-0.794-2.557-1.149c-1.203-0.38-2.115-0.871-2.735-1.473
		c-0.62-0.601-0.931-1.371-0.931-2.308c0-0.976,0.387-1.824,1.158-2.546c0.773-0.722,1.779-1.083,3.021-1.083
		c1.152,0,2.09,0.289,2.813,0.865c0.721,0.577,1.189,1.207,1.406,1.891l-1.596,0.665c-0.115-0.431-0.396-0.83-0.846-1.197
		c-0.451-0.367-1.029-0.551-1.738-0.551c-0.672,0-1.246,0.187-1.721,0.561s-0.713,0.839-0.713,1.396
		c0,0.506,0.219,0.934,0.656,1.282c0.438,0.349,1.08,0.662,1.928,0.94c0.672,0.216,1.232,0.425,1.682,0.627
		c0.449,0.203,0.906,0.472,1.369,0.808c0.461,0.336,0.811,0.754,1.045,1.254c0.234,0.5,0.352,1.08,0.352,1.739
		s-0.137,1.247-0.408,1.767c-0.273,0.52-0.635,0.932-1.084,1.235s-0.934,0.535-1.453,0.693S27.264,27.58,26.721,27.58z"/>
	<path fill="#89909A" stroke="#89909A" stroke-width="0.75" stroke-miterlimit="10" d="M50.281,21.025
		c0,1.9-0.564,3.414-1.691,4.541c-1.279,1.343-2.945,2.014-4.997,2.014c-1.964,0-3.633-0.681-5.007-2.042
		c-1.375-1.362-2.062-3.05-2.062-5.063c0-2.014,0.687-3.702,2.062-5.064c1.374-1.361,3.043-2.042,5.007-2.042
		c0.975,0,1.905,0.19,2.793,0.57c0.885,0.38,1.596,0.887,2.127,1.52l-1.197,1.197c-0.898-1.076-2.14-1.615-3.723-1.615
		c-1.432,0-2.67,0.503-3.715,1.51c-1.045,1.007-1.567,2.315-1.567,3.924c0,1.608,0.522,2.916,1.567,3.924
		c1.045,1.006,2.283,1.51,3.715,1.51c1.52,0,2.786-0.506,3.799-1.52c0.658-0.658,1.039-1.577,1.141-2.755h-4.94V20h6.592
		C50.248,20.354,50.281,20.696,50.281,21.025z"/>
	<path fill="#89909A" stroke="#89909A" stroke-width="0.75" stroke-miterlimit="10" d="M53.473,27.276h-1.748v-9.31h1.672v1.52
		h0.076c0.178-0.506,0.541-0.924,1.092-1.254c0.551-0.329,1.086-0.494,1.605-0.494s0.957,0.076,1.313,0.228l-0.666,1.634
		c-0.229-0.089-0.539-0.133-0.932-0.133c-0.633,0-1.193,0.25-1.68,0.75c-0.488,0.5-0.732,1.156-0.732,1.967V27.276z"/>
	<path fill="#89909A" stroke="#89909A" stroke-width="0.75" stroke-miterlimit="10" d="M58.869,19.078
		c0.898-0.943,2.045-1.415,3.439-1.415c1.393,0,2.539,0.472,3.438,1.415c0.9,0.944,1.35,2.125,1.35,3.543
		c0,1.419-0.449,2.6-1.35,3.544c-0.898,0.943-2.045,1.415-3.438,1.415c-1.395,0-2.541-0.472-3.439-1.415
		c-0.9-0.944-1.35-2.125-1.35-3.544C57.52,21.203,57.969,20.021,58.869,19.078z M60.17,25.063c0.602,0.615,1.314,0.922,2.139,0.922
		c0.822,0,1.535-0.307,2.137-0.922c0.602-0.613,0.902-1.428,0.902-2.441c0-1.013-0.301-1.827-0.902-2.441
		c-0.602-0.614-1.314-0.921-2.137-0.921c-0.824,0-1.537,0.307-2.139,0.921c-0.602,0.615-0.902,1.428-0.902,2.441
		C59.268,23.635,59.568,24.449,60.17,25.063z"/>
	<path fill="#89909A" stroke="#89909A" stroke-width="0.75" stroke-miterlimit="10" d="M76.768,27.276h-1.674v-1.292H75.02
		c-0.268,0.443-0.672,0.82-1.217,1.131s-1.121,0.465-1.729,0.465c-1.166,0-2.049-0.354-2.65-1.063s-0.902-1.659-0.902-2.851v-5.7
		h1.748v5.415c0,1.736,0.766,2.604,2.299,2.604c0.721,0,1.311-0.291,1.766-0.874c0.457-0.583,0.686-1.254,0.686-2.015v-5.129h1.748
		V27.276z"/>
	<path fill="#89909A" stroke="#89909A" stroke-width="0.75" stroke-miterlimit="10" d="M83.74,27.58
		c-0.711,0-1.348-0.152-1.91-0.455c-0.564-0.305-0.984-0.685-1.264-1.141H80.49l0.076,1.292v4.104h-1.748V17.966h1.672v1.292h0.076
		c0.279-0.456,0.699-0.836,1.264-1.14c0.563-0.304,1.199-0.456,1.91-0.456c1.203,0,2.242,0.475,3.115,1.425
		c0.875,0.95,1.311,2.128,1.311,3.534c0,1.406-0.436,2.584-1.311,3.534C85.982,27.105,84.943,27.58,83.74,27.58z M83.455,25.984
		c0.811,0,1.506-0.307,2.09-0.922c0.582-0.613,0.873-1.428,0.873-2.441c0-1.013-0.291-1.827-0.873-2.441
		c-0.584-0.614-1.279-0.921-2.09-0.921c-0.824,0-1.523,0.304-2.1,0.912s-0.865,1.425-0.865,2.451c0,1.026,0.289,1.844,0.865,2.451
		S82.631,25.984,83.455,25.984z"/>
</g>
<g>
</g>
<g>
</g>
<g>
</g>
<g>
</g>
<g>
</g>
<g>
</g>
<g>
</g>
<g>
</g>
<g>
</g>
<g>
</g>
<g>
</g>
<g>
</g>
<g>
</g>
<g>
</g>
<g>
</g>
</svg>
