<?xml version="1.0" encoding="utf-8"?>
<!-- Generator: Adobe Illustrator 16.0.0, SVG Export Plug-In . SVG Version: 6.00 Build 0)  -->
<!DOCTYPE svg PUBLIC "-//W3C//DTD SVG 1.1//EN" "http://www.w3.org/Graphics/SVG/1.1/DTD/svg11.dtd">
<svg version="1.1" id="Layer_1" xmlns="http://www.w3.org/2000/svg" xmlns:xlink="http://www.w3.org/1999/xlink" x="0px" y="0px"
	 width="120px" height="43px" viewBox="0 0 120 43" enable-background="new 0 0 120 43" xml:space="preserve">
<g>
	<rect x="3" y="23" fill="#89909A" width="7" height="15"/>
	<rect x="16" y="16" fill="#89909A" width="7" height="22"/>
	<rect x="27" y="6" fill="#89909A" width="9" height="32"/>
	<g>
		<path fill="#89909A" stroke="#89909A" stroke-width="0.25" stroke-miterlimit="10" d="M47.2,13.206v0.567l-0.729,0.125v5.813
			h-0.88l-3.128-5.022l-0.026,0.009v4.326l0.728,0.125v0.563h-2.337v-0.563l0.729-0.125v-5.126l-0.729-0.125v-0.567h0.729h0.88
			l3.128,5.018l0.027-0.009v-4.316l-0.729-0.125v-0.567h1.609H47.2z"/>
		<path fill="#89909A" stroke="#89909A" stroke-width="0.25" stroke-miterlimit="10" d="M50.087,19.806
			c-0.673,0-1.209-0.224-1.607-0.672c-0.397-0.448-0.596-1.03-0.596-1.745v-0.197c0-0.688,0.205-1.261,0.614-1.718
			s0.895-0.687,1.455-0.687c0.649,0,1.142,0.197,1.477,0.591c0.335,0.393,0.502,0.917,0.502,1.572v0.55h-3.137l-0.014,0.022
			c0.009,0.465,0.126,0.847,0.353,1.146c0.227,0.299,0.544,0.449,0.952,0.449c0.298,0,0.559-0.043,0.784-0.128
			c0.225-0.085,0.419-0.201,0.583-0.351l0.344,0.572c-0.173,0.167-0.401,0.308-0.686,0.422
			C50.828,19.749,50.486,19.806,50.087,19.806z M49.953,15.48c-0.295,0-0.547,0.124-0.755,0.373s-0.336,0.561-0.384,0.937
			l0.009,0.021h2.229v-0.116c0-0.345-0.092-0.634-0.277-0.866S50.316,15.48,49.953,15.48z"/>
		<path fill="#89909A" stroke="#89909A" stroke-width="0.25" stroke-miterlimit="10" d="M54.336,13.711v1.166h0.916v0.652h-0.916
			v2.937c0,0.226,0.047,0.386,0.142,0.478c0.094,0.093,0.218,0.139,0.373,0.139c0.077,0,0.164-0.007,0.261-0.021
			c0.097-0.013,0.179-0.027,0.244-0.042l0.12,0.604c-0.083,0.054-0.205,0.098-0.366,0.132s-0.321,0.051-0.482,0.051
			c-0.357,0-0.642-0.107-0.854-0.323c-0.212-0.217-0.317-0.556-0.317-1.017v-2.937h-0.764v-0.652h0.764v-1.166H54.336z"/>
		<path fill="#89909A" stroke="#89909A" stroke-width="0.25" stroke-miterlimit="10" d="M57.866,15.444l-0.554,0.099l0.63,2.408
			l0.103,0.586h0.027l0.125-0.586l0.965-3.074h0.706l0.97,3.074l0.139,0.652h0.027l0.13-0.652l0.594-2.408l-0.563-0.099v-0.567
			h1.841v0.567l-0.42,0.063l-1.221,4.205h-0.71l-0.938-2.944l-0.201-0.813l-0.026,0.004l-0.188,0.81l-0.92,2.944H57.67l-1.22-4.205
			l-0.425-0.063v-0.567h1.841V15.444z"/>
		<path fill="#89909A" stroke="#89909A" stroke-width="0.25" stroke-miterlimit="10" d="M63.721,17.25
			c0-0.715,0.193-1.305,0.581-1.768c0.387-0.463,0.913-0.695,1.577-0.695c0.667,0,1.195,0.231,1.584,0.693s0.583,1.052,0.583,1.77
			v0.099c0,0.721-0.193,1.311-0.58,1.77c-0.388,0.458-0.914,0.688-1.578,0.688c-0.67,0-1.199-0.229-1.586-0.69
			c-0.388-0.46-0.581-1.049-0.581-1.767V17.25z M64.601,17.349c0,0.512,0.108,0.936,0.324,1.269
			c0.216,0.334,0.537,0.501,0.963,0.501c0.417,0,0.734-0.167,0.952-0.501c0.218-0.333,0.326-0.757,0.326-1.269V17.25
			c0-0.507-0.108-0.928-0.326-1.265s-0.538-0.505-0.961-0.505s-0.742,0.168-0.956,0.505c-0.215,0.337-0.322,0.758-0.322,1.265
			V17.349z"/>
		<path fill="#89909A" stroke="#89909A" stroke-width="0.25" stroke-miterlimit="10" d="M68.851,15.444v-0.567h1.516l0.084,0.701
			c0.138-0.247,0.307-0.44,0.508-0.58c0.201-0.141,0.431-0.211,0.69-0.211c0.068,0,0.139,0.006,0.212,0.017
			c0.073,0.01,0.129,0.021,0.168,0.033l-0.116,0.817l-0.501-0.026c-0.232,0-0.427,0.054-0.585,0.163
			c-0.158,0.108-0.28,0.262-0.366,0.458v2.775l0.729,0.125v0.563h-2.338v-0.563l0.729-0.125v-3.455L68.851,15.444z"/>
		<path fill="#89909A" stroke="#89909A" stroke-width="0.25" stroke-miterlimit="10" d="M72.427,13.309v-0.567h1.608v4.039h0.563
			l1.032-1.277l-0.442-0.059v-0.567h2.024v0.567l-0.59,0.116l-1.274,1.52l1.551,1.962l0.55,0.107v0.563h-2.006v-0.563l0.451-0.059
			l-1.283-1.608h-0.576v1.542l0.729,0.125v0.563h-2.337v-0.563l0.729-0.125v-5.591L72.427,13.309z"/>
		<path fill="#89909A" stroke="#89909A" stroke-width="0.25" stroke-miterlimit="10" d="M85.015,15.127h-0.666l-0.165-0.93
			c-0.134-0.112-0.313-0.207-0.536-0.281s-0.482-0.111-0.777-0.111c-0.468,0-0.827,0.099-1.077,0.297
			c-0.251,0.198-0.376,0.457-0.376,0.775c0,0.283,0.128,0.52,0.383,0.708c0.254,0.189,0.666,0.355,1.235,0.499
			c0.685,0.169,1.206,0.42,1.562,0.75c0.356,0.331,0.534,0.74,0.534,1.229c0,0.524-0.214,0.945-0.642,1.265
			c-0.427,0.318-0.986,0.478-1.678,0.478c-0.5,0-0.945-0.082-1.334-0.245c-0.389-0.164-0.705-0.379-0.949-0.644v-1.211h0.661
			l0.17,0.934c0.17,0.14,0.372,0.255,0.607,0.344c0.235,0.09,0.517,0.135,0.845,0.135c0.444,0,0.795-0.094,1.053-0.282
			c0.258-0.188,0.387-0.442,0.387-0.764c0-0.298-0.112-0.548-0.336-0.749c-0.223-0.201-0.618-0.37-1.184-0.507
			c-0.688-0.164-1.227-0.405-1.613-0.724c-0.388-0.319-0.581-0.72-0.581-1.202c0-0.51,0.216-0.934,0.647-1.271
			c0.433-0.338,0.994-0.508,1.686-0.508c0.455,0,0.87,0.079,1.244,0.235s0.674,0.346,0.9,0.569V15.127z"/>
		<path fill="#89909A" stroke="#89909A" stroke-width="0.25" stroke-miterlimit="10" d="M88.165,19.806
			c-0.674,0-1.209-0.224-1.606-0.672c-0.398-0.448-0.597-1.03-0.597-1.745v-0.197c0-0.688,0.205-1.261,0.614-1.718
			s0.895-0.687,1.455-0.687c0.649,0,1.142,0.197,1.477,0.591c0.335,0.393,0.503,0.917,0.503,1.572v0.55h-3.138l-0.013,0.022
			c0.009,0.465,0.126,0.847,0.353,1.146c0.227,0.299,0.544,0.449,0.952,0.449c0.298,0,0.56-0.043,0.784-0.128
			s0.419-0.201,0.583-0.351l0.344,0.572c-0.173,0.167-0.401,0.308-0.686,0.422C88.906,19.749,88.564,19.806,88.165,19.806z
			 M88.031,15.48c-0.295,0-0.547,0.124-0.756,0.373c-0.208,0.249-0.337,0.561-0.384,0.937l0.009,0.021h2.229v-0.116
			c0-0.345-0.092-0.634-0.276-0.866C88.668,15.597,88.395,15.48,88.031,15.48z"/>
		<path fill="#89909A" stroke="#89909A" stroke-width="0.25" stroke-miterlimit="10" d="M93.049,19.118
			c0.292,0,0.549-0.091,0.771-0.271c0.222-0.181,0.332-0.401,0.332-0.664h0.791l0.01,0.027c0.015,0.417-0.171,0.787-0.557,1.11
			s-0.835,0.484-1.348,0.484c-0.703,0-1.24-0.229-1.61-0.688c-0.371-0.459-0.557-1.035-0.557-1.729v-0.188
			c0-0.688,0.186-1.263,0.559-1.724c0.372-0.46,0.908-0.69,1.608-0.69c0.388,0,0.735,0.064,1.044,0.192
			c0.308,0.128,0.563,0.304,0.766,0.527l0.041,1.072h-0.702l-0.192-0.759c-0.104-0.102-0.238-0.184-0.401-0.246
			c-0.164-0.063-0.349-0.094-0.555-0.094c-0.462,0-0.792,0.166-0.989,0.498c-0.198,0.332-0.298,0.739-0.298,1.223v0.188
			c0,0.494,0.099,0.906,0.295,1.235C92.254,18.953,92.584,19.118,93.049,19.118z"/>
		<path fill="#89909A" stroke="#89909A" stroke-width="0.25" stroke-miterlimit="10" d="M99.27,18.997
			c-0.151,0.259-0.348,0.459-0.588,0.599c-0.239,0.141-0.516,0.21-0.829,0.21c-0.523,0-0.934-0.168-1.229-0.505
			c-0.295-0.336-0.442-0.86-0.442-1.572v-2.159l-0.554-0.125v-0.567h0.554h0.881v2.86c0,0.515,0.075,0.869,0.228,1.063
			c0.152,0.193,0.389,0.29,0.711,0.29c0.313,0,0.57-0.063,0.774-0.189c0.204-0.127,0.358-0.307,0.463-0.539v-2.793l-0.647-0.125
			v-0.567h0.647h0.881v4.147l0.554,0.125v0.563h-1.345L99.27,18.997z"/>
		<path fill="#89909A" stroke="#89909A" stroke-width="0.25" stroke-miterlimit="10" d="M101.37,15.444v-0.567h1.516l0.084,0.701
			c0.138-0.247,0.307-0.44,0.508-0.58c0.201-0.141,0.431-0.211,0.69-0.211c0.068,0,0.139,0.006,0.212,0.017
			c0.073,0.01,0.129,0.021,0.168,0.033l-0.116,0.817l-0.501-0.026c-0.232,0-0.427,0.054-0.585,0.163
			c-0.158,0.108-0.28,0.262-0.366,0.458v2.775l0.729,0.125v0.563h-2.338v-0.563l0.729-0.125v-3.455L101.37,15.444z"/>
		<path fill="#89909A" stroke="#89909A" stroke-width="0.25" stroke-miterlimit="10" d="M105.155,19.149l0.729-0.125v-3.455
			l-0.729-0.125v-0.567h1.609v4.147l0.729,0.125v0.563h-2.338V19.149z M106.765,13.639h-0.881v-0.897h0.881V13.639z"/>
		<path fill="#89909A" stroke="#89909A" stroke-width="0.25" stroke-miterlimit="10" d="M109.699,13.711v1.166h0.916v0.652h-0.916
			v2.937c0,0.226,0.047,0.386,0.142,0.478c0.094,0.093,0.218,0.139,0.373,0.139c0.077,0,0.164-0.007,0.261-0.021
			c0.097-0.013,0.179-0.027,0.244-0.042l0.12,0.604c-0.083,0.054-0.205,0.098-0.366,0.132s-0.321,0.051-0.482,0.051
			c-0.357,0-0.643-0.107-0.854-0.323c-0.212-0.217-0.317-0.556-0.317-1.017v-2.937h-0.765v-0.652h0.765v-1.166H109.699z"/>
		<path fill="#89909A" stroke="#89909A" stroke-width="0.25" stroke-miterlimit="10" d="M116.107,15.444l-0.433,0.067l-1.842,4.942
			c-0.122,0.324-0.298,0.607-0.527,0.849s-0.537,0.362-0.925,0.362c-0.068,0-0.158-0.008-0.269-0.024
			c-0.109-0.017-0.194-0.032-0.254-0.047l0.089-0.693c-0.018-0.003,0.035,0,0.159,0.01c0.123,0.009,0.201,0.013,0.234,0.013
			c0.188,0,0.34-0.081,0.456-0.243s0.217-0.35,0.304-0.561l0.21-0.501l-1.596-4.103l-0.442-0.071v-0.567h1.953v0.567l-0.545,0.09
			l0.835,2.386l0.161,0.617h0.027l1.005-3.003l-0.55-0.09v-0.567h1.948V15.444z"/>
		<path fill="#89909A" stroke="#89909A" stroke-width="0.25" stroke-miterlimit="10" d="M46.007,29.957
			c-0.191,0.199-0.472,0.388-0.845,0.565c-0.373,0.177-0.856,0.266-1.452,0.266c-0.87,0-1.58-0.306-2.129-0.916
			s-0.825-1.403-0.825-2.377v-0.107c0-0.98,0.272-1.774,0.816-2.382c0.543-0.608,1.267-0.912,2.169-0.912
			c0.482,0,0.906,0.075,1.271,0.226c0.365,0.15,0.672,0.35,0.923,0.597v1.18h-0.617l-0.215-0.897
			c-0.146-0.119-0.322-0.218-0.529-0.295c-0.207-0.078-0.455-0.116-0.744-0.116c-0.703,0-1.245,0.24-1.625,0.722
			c-0.38,0.48-0.57,1.104-0.57,1.87v0.116c0,0.777,0.184,1.406,0.552,1.886c0.368,0.479,0.875,0.719,1.521,0.719
			c0.354,0,0.645-0.037,0.871-0.111c0.227-0.074,0.408-0.156,0.545-0.246v-1.425l-1.068-0.045v-0.648h1.948V29.957z"/>
		<path fill="#89909A" stroke="#89909A" stroke-width="0.25" stroke-miterlimit="10" d="M47.106,26.427v-0.567h1.515l0.085,0.701
			c0.137-0.247,0.306-0.44,0.507-0.581c0.201-0.14,0.431-0.21,0.69-0.21c0.068,0,0.139,0.006,0.212,0.016
			c0.073,0.011,0.129,0.021,0.168,0.034l-0.116,0.817l-0.5-0.026c-0.232,0-0.428,0.054-0.585,0.163
			c-0.158,0.108-0.28,0.261-0.367,0.458v2.774l0.729,0.125v0.563h-2.337v-0.563l0.728-0.125v-3.454L47.106,26.427z"/>
		<path fill="#89909A" stroke="#89909A" stroke-width="0.25" stroke-miterlimit="10" d="M50.807,28.232
			c0-0.716,0.193-1.305,0.581-1.768c0.388-0.464,0.913-0.695,1.578-0.695c0.667,0,1.195,0.231,1.584,0.693
			c0.389,0.461,0.583,1.051,0.583,1.77v0.098c0,0.722-0.193,1.312-0.58,1.77c-0.388,0.459-0.914,0.688-1.578,0.688
			c-0.67,0-1.199-0.23-1.586-0.69c-0.387-0.46-0.581-1.049-0.581-1.768V28.232z M51.687,28.33c0,0.513,0.108,0.936,0.324,1.27
			s0.537,0.5,0.963,0.5c0.417,0,0.734-0.166,0.952-0.5c0.217-0.334,0.326-0.757,0.326-1.27v-0.098c0-0.507-0.109-0.929-0.326-1.265
			c-0.218-0.337-0.538-0.505-0.961-0.505s-0.742,0.168-0.956,0.505c-0.215,0.336-0.322,0.758-0.322,1.265V28.33z"/>
		<path fill="#89909A" stroke="#89909A" stroke-width="0.25" stroke-miterlimit="10" d="M59.396,29.979
			c-0.151,0.259-0.348,0.459-0.588,0.599c-0.239,0.14-0.516,0.21-0.829,0.21c-0.523,0-0.934-0.168-1.229-0.505
			s-0.442-0.861-0.442-1.573v-2.158l-0.554-0.125v-0.567h0.554h0.881v2.859c0,0.516,0.075,0.87,0.228,1.063
			c0.152,0.194,0.389,0.291,0.711,0.291c0.313,0,0.57-0.063,0.774-0.19c0.204-0.126,0.358-0.306,0.463-0.538v-2.793l-0.647-0.125
			v-0.567h0.647h0.881v4.146l0.554,0.125v0.563h-1.345L59.396,29.979z"/>
		<path fill="#89909A" stroke="#89909A" stroke-width="0.25" stroke-miterlimit="10" d="M61.388,31.985l0.729-0.125v-5.309
			l-0.729-0.125v-0.567h1.484l0.08,0.59c0.161-0.221,0.356-0.389,0.588-0.505c0.23-0.116,0.498-0.175,0.802-0.175
			c0.599,0,1.064,0.238,1.396,0.713c0.332,0.476,0.498,1.104,0.498,1.884v0.094c0,0.697-0.166,1.26-0.5,1.687
			c-0.334,0.428-0.794,0.642-1.381,0.642c-0.298,0-0.56-0.05-0.784-0.149c-0.226-0.1-0.417-0.248-0.574-0.445v1.667l0.729,0.125
			v0.568h-2.338V31.985z M65.352,28.366c0-0.551-0.106-1.003-0.321-1.354s-0.533-0.527-0.956-0.527c-0.251,0-0.465,0.057-0.644,0.17
			s-0.323,0.269-0.434,0.465v2.355c0.11,0.199,0.254,0.354,0.431,0.462c0.178,0.109,0.396,0.163,0.655,0.163
			c0.417,0,0.732-0.151,0.947-0.455c0.215-0.305,0.321-0.699,0.321-1.185V28.366z"/>
	</g>
	<rect x="16" y="16" fill="#89909A" width="7" height="22"/>
	<rect x="3" y="23" fill="#89909A" width="7" height="15"/>
	<rect x="14" y="16" fill="#89909A" width="9" height="22"/>
	<rect x="1" y="23" fill="#89909A" width="9" height="15"/>
</g>
<g>
</g>
<g>
</g>
<g>
</g>
<g>
</g>
<g>
</g>
<g>
</g>
<g>
</g>
<g>
</g>
<g>
</g>
<g>
</g>
<g>
</g>
<g>
</g>
<g>
</g>
<g>
</g>
<g>
</g>
</svg>
