<?xml version="1.0" encoding="utf-8"?>
<!-- Generator: Adobe Illustrator 16.0.0, SVG Export Plug-In . SVG Version: 6.00 Build 0)  -->
<!DOCTYPE svg PUBLIC "-//W3C//DTD SVG 1.1//EN" "http://www.w3.org/Graphics/SVG/1.1/DTD/svg11.dtd">
<svg version="1.1" id="Layer_1" xmlns="http://www.w3.org/2000/svg" xmlns:xlink="http://www.w3.org/1999/xlink" x="0px" y="0px"
	 width="90px" height="43px" viewBox="0 0 90 43" enable-background="new 0 0 90 43" xml:space="preserve">
<g>
	<path fill="#89909A" stroke="#89909A" stroke-width="0.75" stroke-miterlimit="10" d="M13.341,19.526h-1.748V7.594h-3.8V5.922
		h9.348v1.672h-3.8V19.526z"/>
	<path fill="#89909A" stroke="#89909A" stroke-width="0.75" stroke-miterlimit="10" d="M19.269,19.526h-1.748v-9.31h1.672v1.52
		h0.076c0.177-0.506,0.542-0.924,1.092-1.254c0.551-0.329,1.086-0.494,1.605-0.494s0.957,0.076,1.311,0.228l-0.665,1.634
		c-0.228-0.089-0.538-0.133-0.931-0.133c-0.634,0-1.194,0.25-1.682,0.75c-0.488,0.5-0.731,1.156-0.731,1.967V19.526z"/>
	<path fill="#89909A" stroke="#89909A" stroke-width="0.75" stroke-miterlimit="10" d="M26.317,7.879
		C26.077,8.12,25.786,8.24,25.443,8.24c-0.342,0-0.633-0.12-0.874-0.361s-0.361-0.532-0.361-0.874s0.12-0.633,0.361-0.874
		c0.241-0.24,0.532-0.361,0.874-0.361c0.342,0,0.633,0.121,0.874,0.361c0.241,0.241,0.361,0.532,0.361,0.874
		S26.558,7.639,26.317,7.879z M26.317,19.526h-1.748v-9.31h1.748V19.526z"/>
	<path fill="#89909A" stroke="#89909A" stroke-width="0.75" stroke-miterlimit="10" d="M31.448,19.831
		c-0.988,0-1.814-0.285-2.48-0.855c-0.665-0.57-0.997-1.324-0.997-2.261c0-1.013,0.392-1.808,1.178-2.384
		c0.785-0.577,1.754-0.865,2.906-0.865c1.025,0,1.869,0.19,2.527,0.57V13.77c0-0.684-0.234-1.232-0.703-1.644
		s-1.045-0.618-1.729-0.618c-0.508,0-0.967,0.121-1.377,0.361c-0.412,0.241-0.695,0.57-0.846,0.988l-1.597-0.684
		c0.215-0.557,0.64-1.073,1.272-1.548s1.469-0.712,2.508-0.712c1.191,0,2.18,0.348,2.965,1.045s1.178,1.678,1.178,2.945v5.624
		h-1.672v-1.292h-0.076C33.809,19.298,32.79,19.831,31.448,19.831z M31.733,18.234c0.721,0,1.377-0.269,1.967-0.808
		c0.588-0.538,0.883-1.175,0.883-1.909c-0.494-0.405-1.234-0.608-2.223-0.608c-0.85,0-1.488,0.184-1.92,0.551
		c-0.43,0.368-0.645,0.798-0.645,1.292c0,0.456,0.195,0.817,0.588,1.083S31.225,18.234,31.733,18.234z"/>
	<path fill="#89909A" stroke="#89909A" stroke-width="0.75" stroke-miterlimit="10" d="M41.594,19.831
		c-1.039,0-1.897-0.254-2.575-0.76s-1.175-1.14-1.491-1.9l1.558-0.646c0.494,1.166,1.337,1.748,2.527,1.748
		c0.545,0,0.991-0.12,1.34-0.361c0.348-0.24,0.522-0.557,0.522-0.95c0-0.608-0.425-1.02-1.273-1.235l-1.881-0.456
		c-0.596-0.152-1.159-0.44-1.691-0.865c-0.531-0.424-0.798-0.998-0.798-1.719c0-0.823,0.364-1.492,1.093-2.005
		c0.729-0.513,1.593-0.769,2.594-0.769c0.823,0,1.558,0.187,2.204,0.56c0.646,0.374,1.107,0.909,1.387,1.605l-1.521,0.627
		c-0.342-0.823-1.051-1.235-2.128-1.235c-0.52,0-0.956,0.108-1.311,0.323s-0.532,0.507-0.532,0.874c0,0.532,0.411,0.893,1.235,1.083
		l1.843,0.437c0.874,0.203,1.52,0.551,1.938,1.045c0.419,0.494,0.628,1.051,0.628,1.672c0,0.836-0.343,1.533-1.026,2.09
		C43.55,19.552,42.67,19.831,41.594,19.831z"/>
	<path fill="#89909A" stroke="#89909A" stroke-width="0.75" stroke-miterlimit="10" d="M51.131,19.831
		c-1.393,0-2.539-0.472-3.439-1.416c-0.898-0.944-1.348-2.125-1.348-3.543s0.449-2.6,1.348-3.544c0.9-0.943,2.047-1.415,3.439-1.415
		c1.039,0,1.9,0.253,2.584,0.76c0.684,0.507,1.184,1.146,1.502,1.919l-1.598,0.665c-0.48-1.165-1.348-1.748-2.602-1.748
		c-0.773,0-1.453,0.317-2.043,0.95s-0.883,1.438-0.883,2.413c0,0.975,0.293,1.78,0.883,2.413c0.59,0.634,1.27,0.95,2.043,0.95
		c1.305,0,2.203-0.583,2.697-1.748l1.559,0.665c-0.316,0.76-0.826,1.396-1.529,1.91C53.041,19.574,52.17,19.831,51.131,19.831z"/>
	<path fill="#89909A" stroke="#89909A" stroke-width="0.75" stroke-miterlimit="10" d="M57.516,11.328
		c0.898-0.943,2.045-1.415,3.439-1.415c1.393,0,2.539,0.472,3.438,1.415c0.9,0.944,1.35,2.125,1.35,3.544s-0.449,2.6-1.35,3.543
		c-0.898,0.943-2.045,1.416-3.438,1.416c-1.395,0-2.541-0.472-3.439-1.416c-0.9-0.944-1.35-2.125-1.35-3.543
		S56.615,12.271,57.516,11.328z M58.816,17.313c0.602,0.614,1.314,0.921,2.139,0.921c0.822,0,1.535-0.307,2.137-0.921
		s0.902-1.428,0.902-2.441c0-1.014-0.301-1.827-0.902-2.442c-0.602-0.614-1.314-0.921-2.137-0.921c-0.824,0-1.537,0.307-2.139,0.921
		c-0.602,0.615-0.902,1.428-0.902,2.442C57.914,15.885,58.215,16.699,58.816,17.313z"/>
	<path fill="#89909A" stroke="#89909A" stroke-width="0.75" stroke-miterlimit="10" d="M67.148,19.526v-9.31h1.672v1.292h0.076
		c0.266-0.443,0.674-0.82,1.225-1.13c0.553-0.31,1.1-0.465,1.645-0.465c1.443,0,2.426,0.595,2.945,1.786
		c0.76-1.19,1.842-1.786,3.248-1.786c1.102,0,1.932,0.351,2.49,1.054c0.557,0.703,0.836,1.656,0.836,2.859v5.7h-1.748v-5.434
		c0-0.937-0.172-1.602-0.514-1.995c-0.342-0.392-0.861-0.589-1.559-0.589c-0.684,0-1.25,0.292-1.699,0.874
		c-0.451,0.583-0.676,1.248-0.676,1.995v5.149h-1.748v-5.434c0-0.937-0.17-1.602-0.512-1.995c-0.342-0.392-0.861-0.589-1.559-0.589
		c-0.684,0-1.252,0.292-1.701,0.874c-0.449,0.583-0.674,1.248-0.674,1.995v5.149H67.148z"/>
</g>
<g>
	<g>
		<path fill="#89909A" stroke="#89909A" stroke-width="0.25" stroke-miterlimit="10" d="M21.795,27.307l-0.024-0.005L19.471,33
			h-0.64l-2.3-5.693l-0.024,0.005l0.098,2.876v2.061l0.796,0.137V33h-2.554v-0.615l0.796-0.137v-5.601l-0.796-0.137v-0.62h0.796
			h1.23l2.266,5.776h0.029l2.261-5.776h2.031v0.62l-0.796,0.137v5.601l0.796,0.137V33h-2.554v-0.615l0.796-0.137v-2.061
			L21.795,27.307z"/>
		<path fill="#89909A" stroke="#89909A" stroke-width="0.25" stroke-miterlimit="10" d="M28.016,32.219
			c-0.166,0.283-0.38,0.501-0.642,0.654s-0.564,0.229-0.906,0.229c-0.573,0-1.021-0.184-1.343-0.552s-0.483-0.94-0.483-1.719v-2.358
			l-0.605-0.137v-0.62h0.605h0.962v3.125c0,0.563,0.083,0.95,0.249,1.162s0.425,0.317,0.776,0.317c0.342,0,0.624-0.069,0.847-0.208
			c0.223-0.138,0.392-0.334,0.505-0.588v-3.052l-0.708-0.137v-0.62h0.708h0.962v4.531l0.605,0.137V33h-1.47L28.016,32.219z"/>
		<path fill="#89909A" stroke="#89909A" stroke-width="0.25" stroke-miterlimit="10" d="M34.354,29.377h-0.723l-0.156-0.635
			c-0.117-0.11-0.265-0.199-0.442-0.266c-0.177-0.067-0.378-0.101-0.603-0.101c-0.342,0-0.596,0.075-0.762,0.225
			s-0.249,0.33-0.249,0.542c0,0.208,0.073,0.373,0.22,0.493s0.444,0.228,0.894,0.322c0.667,0.144,1.164,0.338,1.489,0.583
			c0.326,0.246,0.488,0.576,0.488,0.989c0,0.469-0.189,0.848-0.569,1.138s-0.875,0.435-1.487,0.435c-0.4,0-0.76-0.046-1.079-0.14
			c-0.319-0.092-0.604-0.227-0.854-0.402l-0.005-1.206h0.723l0.181,0.708c0.111,0.101,0.261,0.174,0.452,0.22
			s0.385,0.068,0.583,0.068c0.342,0,0.609-0.069,0.803-0.208c0.194-0.138,0.291-0.319,0.291-0.544c0-0.212-0.081-0.386-0.242-0.522
			s-0.466-0.256-0.916-0.356c-0.641-0.14-1.125-0.33-1.45-0.571s-0.488-0.566-0.488-0.977c0-0.43,0.183-0.796,0.549-1.099
			s0.842-0.454,1.428-0.454c0.4,0,0.76,0.052,1.079,0.156s0.584,0.249,0.796,0.435L34.354,29.377z"/>
		<path fill="#89909A" stroke="#89909A" stroke-width="0.25" stroke-miterlimit="10" d="M35.408,32.385l0.796-0.137v-3.774
			l-0.796-0.137v-0.62h1.758v4.531l0.796,0.137V33h-2.554V32.385z M37.166,26.364h-0.962v-0.981h0.962V26.364z"/>
		<path fill="#89909A" stroke="#89909A" stroke-width="0.25" stroke-miterlimit="10" d="M41.067,32.351
			c0.319,0,0.6-0.099,0.843-0.296c0.242-0.196,0.363-0.438,0.363-0.725h0.864l0.01,0.029c0.017,0.456-0.187,0.86-0.608,1.213
			c-0.421,0.354-0.912,0.53-1.472,0.53c-0.769,0-1.354-0.251-1.761-0.752c-0.404-0.501-0.607-1.131-0.607-1.89v-0.205
			c0-0.752,0.203-1.379,0.61-1.883c0.407-0.502,0.993-0.754,1.758-0.754c0.423,0,0.804,0.07,1.14,0.21
			c0.338,0.14,0.616,0.332,0.838,0.576l0.044,1.172h-0.767l-0.21-0.83c-0.114-0.11-0.261-0.2-0.439-0.269s-0.381-0.103-0.605-0.103
			c-0.505,0-0.865,0.182-1.081,0.544c-0.217,0.363-0.325,0.809-0.325,1.336v0.205c0,0.54,0.107,0.99,0.322,1.35
			C40.198,32.171,40.56,32.351,41.067,32.351z"/>
		<path fill="#89909A" stroke="#89909A" stroke-width="0.25" stroke-miterlimit="10" d="M46.497,31.086
			c0-0.397,0.115-0.744,0.344-1.043c0.23-0.297,0.572-0.596,1.028-0.896c-0.254-0.322-0.442-0.609-0.566-0.862
			c-0.124-0.252-0.186-0.512-0.186-0.778c0-0.55,0.159-0.974,0.476-1.272c0.318-0.297,0.755-0.446,1.312-0.446
			c0.515,0,0.933,0.148,1.255,0.444s0.483,0.652,0.483,1.069c0,0.319-0.085,0.595-0.257,0.827c-0.17,0.233-0.424,0.472-0.759,0.716
			l-0.532,0.391l1.66,1.997c0.134-0.212,0.237-0.446,0.313-0.703S51.18,30,51.18,29.714h0.859c0,0.427-0.063,0.822-0.19,1.187
			s-0.311,0.691-0.552,0.981l0.903,1.094L52.19,33h-1.118l-0.415-0.498c-0.261,0.195-0.549,0.344-0.864,0.447
			c-0.315,0.102-0.643,0.153-0.981,0.153c-0.706,0-1.269-0.188-1.688-0.562C46.706,32.167,46.497,31.682,46.497,31.086z
			 M48.812,32.351c0.234,0,0.466-0.04,0.693-0.12c0.228-0.079,0.442-0.194,0.645-0.344l-1.763-2.124l-0.195,0.142
			c-0.296,0.222-0.492,0.433-0.589,0.635c-0.096,0.202-0.144,0.384-0.144,0.547c0,0.368,0.115,0.671,0.347,0.908
			S48.372,32.351,48.812,32.351z M48.079,27.497c0,0.173,0.044,0.353,0.132,0.54c0.088,0.187,0.22,0.391,0.396,0.612l0.674-0.464
			c0.186-0.124,0.312-0.258,0.379-0.402c0.066-0.146,0.1-0.306,0.1-0.481c0-0.198-0.079-0.374-0.236-0.527
			c-0.158-0.153-0.364-0.229-0.618-0.229c-0.264,0-0.467,0.092-0.61,0.275C48.15,27.005,48.079,27.23,48.079,27.497z"/>
		<path fill="#89909A" stroke="#89909A" stroke-width="0.25" stroke-miterlimit="10" d="M55.262,32.385l0.796-0.137v-5.601
			l-0.796-0.137v-0.62h5.493V27.6h-0.82l-0.078-0.952H57.02v2.451h2.749v0.757H57.02v2.393l0.796,0.137V33h-2.554V32.385z"/>
		<path fill="#89909A" stroke="#89909A" stroke-width="0.25" stroke-miterlimit="10" d="M61.565,32.385l0.796-0.137v-3.774
			l-0.796-0.137v-0.62h1.758v4.531l0.796,0.137V33h-2.554V32.385z M63.323,26.364h-0.962v-0.981h0.962V26.364z"/>
		<path fill="#89909A" stroke="#89909A" stroke-width="0.25" stroke-miterlimit="10" d="M64.72,26.003v-0.62h1.758v6.865
			l0.796,0.137V33H64.72v-0.615l0.796-0.137V26.14L64.72,26.003z"/>
		<path fill="#89909A" stroke="#89909A" stroke-width="0.25" stroke-miterlimit="10" d="M67.811,32.385l0.796-0.137v-3.774
			l-0.796-0.137v-0.62h1.66l0.063,0.688c0.169-0.251,0.388-0.444,0.654-0.581s0.576-0.205,0.928-0.205s0.653,0.081,0.905,0.244
			c0.253,0.163,0.442,0.407,0.569,0.732c0.166-0.3,0.386-0.537,0.659-0.713s0.593-0.264,0.957-0.264c0.54,0,0.967,0.185,1.279,0.555
			c0.313,0.369,0.469,0.925,0.469,1.667v2.407l0.796,0.137V33h-2.559v-0.615l0.796-0.137v-2.417c0-0.521-0.09-0.89-0.269-1.106
			c-0.179-0.216-0.444-0.324-0.796-0.324c-0.335,0-0.604,0.118-0.809,0.354c-0.203,0.236-0.321,0.533-0.354,0.892v2.603l0.796,0.137
			V33h-2.554v-0.615l0.796-0.137v-2.417c0-0.495-0.092-0.856-0.276-1.087c-0.184-0.229-0.449-0.344-0.798-0.344
			c-0.293,0-0.534,0.061-0.723,0.181s-0.334,0.29-0.435,0.508v3.159l0.796,0.137V33h-2.554V32.385z"/>
	</g>
</g>
<g>
</g>
<g>
</g>
<g>
</g>
<g>
</g>
<g>
</g>
<g>
</g>
<g>
</g>
<g>
</g>
<g>
</g>
<g>
</g>
<g>
</g>
<g>
</g>
<g>
</g>
<g>
</g>
<g>
</g>
</svg>
