<?xml version="1.0" encoding="utf-8"?>
<!-- Generator: Adobe Illustrator 16.0.0, SVG Export Plug-In . SVG Version: 6.00 Build 0)  -->
<!DOCTYPE svg PUBLIC "-//W3C//DTD SVG 1.1//EN" "http://www.w3.org/Graphics/SVG/1.1/DTD/svg11.dtd">
<svg version="1.1" xmlns="http://www.w3.org/2000/svg" xmlns:xlink="http://www.w3.org/1999/xlink" x="0px" y="0px" width="192px"
	 height="192px" viewBox="0 0 192 192" enable-background="new 0 0 192 192" xml:space="preserve">
<g id="Layer_2">
</g>
<g id="Layer_1">
	
		<linearGradient id="SVGID_1_" gradientUnits="userSpaceOnUse" x1="234.46" y1="-227.0752" x2="361.0313" y2="-227.0752" gradientTransform="matrix(1 0 0 -1 -201.6602 -130.96)">
		<stop  offset="0" style="stop-color:#FFFFFF"/>
		<stop  offset="1" style="stop-color:#FFFFFF"/>
	</linearGradient>
	<path fill="#FFFFFF" stroke="url(#SVGID_1_)" stroke-miterlimit="10" d="M158.598,63.481c0,0-0.141-3.414-3.42-5.326
		c-3.287-1.91-56.404-32.538-56.404-32.538s-3.098-1.422-5.869,0.216c-2.769,1.639-57.414,32.73-57.414,32.73
		s-2.19,2.186-2.19,3.824c0,1.638,0,66.9,0,66.9s0.918,3.582,2.595,4.25c0.134,0.082,0.355,0.207,0.689,0.387l56.354,32.225
		c0,0,2.188,1.908,4.922,0.545c2.736-1.367,58.545-33.59,58.545-33.59s1.912-1.906,2.189-3s0.277-1.094,0.277-1.094L158.598,63.481z
		 M120.531,109.44c-0.111,0.439-0.875,1.205-0.875,1.205s-22.32,12.889-23.418,13.432c-1.098,0.547-1.969-0.219-1.969-0.219
		l-22.541-12.887c-0.135-0.072-0.223-0.121-0.276-0.156c-0.666-0.268-1.04-1.703-1.04-1.703s0-26.101,0-26.757
		c0-0.658,0.876-1.528,0.876-1.528s21.858-12.439,22.968-13.096c1.111-0.658,2.346-0.088,2.346-0.088s21.25,12.25,22.559,13.02
		c1.313,0.759,1.375,2.126,1.375,2.126l0.105,26.214C120.637,109.007,120.637,109.007,120.531,109.44z"/>
	<g>
	</g>
	<g>
	</g>
	<g>
	</g>
	<g>
	</g>
	<g>
	</g>
	<g>
	</g>
	<g>
	</g>
	<g>
	</g>
	<g>
	</g>
	<g>
	</g>
	<g>
	</g>
	<g>
	</g>
	<g>
	</g>
	<g>
	</g>
	<g>
	</g>
</g>
</svg>
